<svg width="20" height="21" viewBox="0 0 20 21" fill="none" xmlns="http://www.w3.org/2000/svg">
<path d="M10 1.41284L10.4509 0.520252L10 0.292507L9.54913 0.520252L10 1.41284ZM19 5.95896H20V5.34375L19.4509 5.06637L19 5.95896ZM19 15.0512L19.4509 15.9438L20 15.6664V15.0512H19ZM10 19.5973L9.54913 20.4899L10 20.7177L10.4509 20.4899L10 19.5973ZM1 15.0512H0V15.6664L0.549131 15.9438L1 15.0512ZM1 5.95896L0.549131 5.06637L0 5.34375V5.95896H1ZM14 11.5153C14 12.0676 14.4477 12.5153 15 12.5153C15.5523 12.5153 16 12.0676 16 11.5153H14ZM15 7.97946H16V7.36425L15.4509 7.08687L15 7.97946ZM6.45087 2.54075C5.95791 2.29174 5.35642 2.48951 5.10741 2.98247C4.8584 3.47543 5.05617 4.07692 5.54913 4.32593L6.45087 2.54075ZM9 19.0922C9 19.6445 9.44771 20.0922 10 20.0922C10.5523 20.0922 11 19.6445 11 19.0922H9ZM9.54913 2.30543L18.5491 6.85155L19.4509 5.06637L10.4509 0.520252L9.54913 2.30543ZM18 5.95896V15.0512H20V5.95896H18ZM18.5491 14.1586L9.54913 18.7047L10.4509 20.4899L19.4509 15.9438L18.5491 14.1586ZM10.4509 18.7047L1.45087 14.1586L0.549131 15.9438L9.54913 20.4899L10.4509 18.7047ZM2 15.0512V5.95896H0V15.0512H2ZM1.45087 6.85155L10.4509 2.30543L9.54913 0.520252L0.549131 5.06637L1.45087 6.85155ZM18.5491 5.06637L9.54913 9.61249L10.4509 11.3977L19.4509 6.85155L18.5491 5.06637ZM10.4509 9.61249L1.45087 5.06637L0.549131 6.85155L9.54913 11.3977L10.4509 9.61249ZM16 11.5153V7.97946H14V11.5153H16ZM15.4509 7.08687L6.45087 2.54075L5.54913 4.32593L14.5491 8.87205L15.4509 7.08687ZM11 19.0922V10.5051H9V19.0922H11Z" fill="#FB6C6C"/>
</svg>
