<svg width="32" height="32" viewBox="0 0 32 32" fill="none" xmlns="http://www.w3.org/2000/svg">
<path d="M10.6667 9.33317V10.3332C11.001 10.3332 11.3133 10.1661 11.4987 9.88787L10.6667 9.33317ZM11.6528 7.85397L10.8208 7.29927V7.29927L11.6528 7.85397ZM20.3472 7.85397L21.1793 7.29927V7.29927L20.3472 7.85397ZM21.3333 9.33317L20.5013 9.88787C20.6867 10.1661 20.999 10.3332 21.3333 10.3332V9.33317ZM28 9.33317H29V8.33317H28V9.33317ZM28 23.9998V24.9998H29V23.9998H28ZM4 23.9998H3V24.9998H4V23.9998ZM4 9.33317V8.33317H3V9.33317H4ZM11.4987 9.88787L12.4849 8.40867L10.8208 7.29927L9.83462 8.77847L11.4987 9.88787ZM12.4849 8.40867C12.794 7.94501 13.3143 7.6665 13.8716 7.6665V5.6665C12.6456 5.6665 11.5008 6.27921 10.8208 7.29927L12.4849 8.40867ZM13.8716 7.6665H18.1284V5.6665H13.8716V7.6665ZM18.1284 7.6665C18.6857 7.6665 19.206 7.94501 19.5152 8.40867L21.1793 7.29927C20.4992 6.27921 19.3544 5.6665 18.1284 5.6665V7.6665ZM19.5152 8.40867L20.5013 9.88787L22.1654 8.77847L21.1793 7.29927L19.5152 8.40867ZM21.3333 10.3332H28V8.33317H21.3333V10.3332ZM27 9.33317V23.9998H29V9.33317H27ZM28 22.9998H4V24.9998H28V22.9998ZM5 23.9998V9.33317H3V23.9998H5ZM4 10.3332H10.6667V8.33317H4V10.3332ZM16 20.9998C18.7614 20.9998 21 18.7613 21 15.9998H19C19 17.6567 17.6569 18.9998 16 18.9998V20.9998ZM21 15.9998C21 13.2384 18.7614 10.9998 16 10.9998V12.9998C17.6569 12.9998 19 14.343 19 15.9998H21ZM16 10.9998C13.2386 10.9998 11 13.2384 11 15.9998H13C13 14.343 14.3431 12.9998 16 12.9998V10.9998ZM11 15.9998C11 18.7613 13.2386 20.9998 16 20.9998V18.9998C14.3431 18.9998 13 17.6567 13 15.9998H11Z" fill="#908C81"/>
</svg>
