<svg width="18" height="14" viewBox="0 0 18 14" fill="none" xmlns="http://www.w3.org/2000/svg">
<path d="M1 1V0C0.447715 0 0 0.447715 0 1L1 1ZM17 1H18C18 0.447715 17.5523 0 17 0V1ZM17 13V14C17.5523 14 18 13.5523 18 13H17ZM1 13H0C0 13.5523 0.447715 14 1 14L1 13ZM9 8.71429L8.30586 9.43413L9 10.1035L9.69414 9.43413L9 8.71429ZM1 2H17V0H1V2ZM16 1V13H18V1H16ZM17 12H1V14H17V12ZM2 13V1H0V13H2ZM0.305864 1.71984L8.30586 9.43413L9.69414 7.99444L1.69414 0.280156L0.305864 1.71984ZM9.69414 9.43413L17.6941 1.71984L16.3059 0.280156L8.30586 7.99444L9.69414 9.43413Z" fill="#EAEAEA"/>
</svg>
