<svg width="48" height="48" viewBox="0 0 48 48" fill="none" xmlns="http://www.w3.org/2000/svg">
<path fill-rule="evenodd" clip-rule="evenodd" d="M8.62695 8.50563C9.17613 7.95646 10.0665 7.95646 10.6157 8.50563L30.0951 27.9851L30.1776 28.0617C30.2199 28.101 30.2596 28.1426 30.2964 28.1863L39.6071 37.497C40.1562 38.0462 40.1562 38.9366 39.6071 39.4857C39.0579 40.0349 38.1675 40.0349 37.6183 39.4857L33.6579 35.5253C30.7172 37.4481 27.2558 38.9062 23.5 38.9062C17.4099 38.9062 12.0668 35.0759 8.38029 31.5109C6.50914 29.7014 4.99953 27.8968 3.95807 26.5462C3.43645 25.8697 3.03 25.3042 2.75209 24.9049C2.61309 24.7051 2.50609 24.5467 2.43277 24.4366C2.39611 24.3816 2.36785 24.3386 2.34821 24.3085L2.32524 24.2731L2.31864 24.2629L2.31658 24.2596L2.31585 24.2585C2.31558 24.2581 2.31534 24.2577 3.5 23.5C2.31534 22.7423 2.31549 22.7421 2.31565 22.7418L2.31606 22.7412L2.31714 22.7395L2.32037 22.7345L2.33109 22.7179L2.36939 22.6592C2.40236 22.609 2.45014 22.5368 2.51226 22.4448C2.63647 22.2608 2.81814 21.9969 3.05346 21.6688C3.5238 21.013 4.21014 20.0986 5.08202 19.0519C6.5877 17.2443 8.67032 15.0136 11.1723 13.0397L8.62695 10.4944C8.07778 9.94519 8.07778 9.05481 8.62695 8.50563ZM13.0395 15.1496C10.6891 16.9836 8.70035 19.1024 7.24303 20.8519C6.42133 21.8384 5.7764 22.698 5.33888 23.308C5.29074 23.3751 5.24514 23.4392 5.20211 23.5C5.44842 23.8483 5.77871 24.3015 6.18533 24.8288C7.16798 26.1032 8.5873 27.7986 10.3354 29.4891C13.8875 32.9241 18.5444 36.0937 23.5 36.0937C26.2859 36.0937 28.9873 35.093 31.4706 33.5807L29.0123 31.1224C27.4637 32.2438 25.5584 32.9061 23.5 32.9061C18.3051 32.9061 14.0937 28.6948 14.0937 23.4999C14.0937 21.4421 14.7559 19.5363 15.8775 17.9876L13.0395 15.1496ZM17.7171 20.3289C17.1999 21.2696 16.9062 22.3496 16.9062 23.4999C16.9062 27.1415 19.8584 30.0936 23.5 30.0936C24.7809 30.0936 25.9755 29.7293 26.9873 29.0974L24.7447 26.8547L17.7171 20.3289ZM3.5 23.5L2.31534 22.7423C2.01989 23.2042 2.01989 23.7958 2.31534 24.2577L3.5 23.5ZM23.5 10.9063C22.0279 10.9063 20.5794 11.185 19.1699 11.6738C18.4361 11.9283 17.6349 11.5397 17.3805 10.8059C17.126 10.0721 17.5146 9.27098 18.2484 9.01653C19.9087 8.4408 21.6694 8.09375 23.5 8.09375C29.5901 8.09375 34.9332 11.9241 38.6197 15.4891C40.4909 17.2986 42.0005 19.1032 43.0419 20.4538C43.5635 21.1303 43.97 21.6958 44.2479 22.0951C44.3869 22.2949 44.4939 22.4532 44.5672 22.5634C44.6039 22.6184 44.6321 22.6614 44.6518 22.6915L44.6748 22.7269L44.6814 22.7371L44.6834 22.7404L44.6841 22.7415C44.6844 22.7419 44.6847 22.7423 43.5 23.5C44.6847 24.2577 44.6846 24.2579 44.6844 24.258L44.6842 24.2585L44.6835 24.2595L44.6816 24.2624L44.6757 24.2716L44.6551 24.3034C44.6376 24.3303 44.6123 24.3688 44.5796 24.418C44.5142 24.5165 44.4189 24.6581 44.2949 24.8371C44.0471 25.1951 43.6846 25.7034 43.2185 26.3157C42.2878 27.5386 40.9371 29.1857 39.2556 30.8826C38.709 31.4343 37.8186 31.4383 37.2669 30.8917C36.7152 30.345 36.7112 29.4546 37.2578 28.9029C38.8328 27.3135 40.1037 25.7643 40.9805 24.6123C41.3119 24.1769 41.586 23.7996 41.7979 23.5C41.5516 23.1517 41.2213 22.6985 40.8147 22.1712C39.832 20.8968 38.4127 19.2014 36.6646 17.5109C33.1125 14.0759 28.4556 10.9063 23.5 10.9063ZM43.5 23.5L44.6847 24.2577C44.9801 23.7958 44.9801 23.2042 44.6847 22.7423L43.5 23.5Z" fill="#19A896"/>
</svg>
