<svg width="343" height="50" viewBox="0 0 343 50" fill="none" xmlns="http://www.w3.org/2000/svg">
<rect width="343" height="50" rx="4" fill="black"/>
<path d="M169.451 24.6725V31.7485H167.19V14.2748H173.184C174.703 14.2748 175.998 14.7778 177.058 15.7836C178.141 16.7895 178.683 18.0175 178.683 19.4678C178.683 20.9532 178.141 22.1813 177.058 23.1754C176.01 24.1696 174.715 24.6608 173.184 24.6608H169.451V24.6725ZM169.451 16.4269V22.5204H173.231C174.126 22.5204 174.879 22.2164 175.468 21.6199C176.069 21.0234 176.375 20.2982 176.375 19.4795C176.375 18.6725 176.069 17.9591 175.468 17.3626C174.879 16.7427 174.138 16.4386 173.231 16.4386H169.451V16.4269Z" fill="white"/>
<path d="M184.594 19.3976C186.266 19.3976 187.585 19.8421 188.55 20.731C189.516 21.6199 189.999 22.8362 189.999 24.3801V31.7485H187.844V30.0877H187.75C186.819 31.4561 185.571 32.1345 184.017 32.1345C182.686 32.1345 181.579 31.7485 180.685 30.9649C179.79 30.1813 179.342 29.2105 179.342 28.0409C179.342 26.8011 179.813 25.8187 180.755 25.0935C181.697 24.3567 182.957 23.9941 184.523 23.9941C185.866 23.9941 186.972 24.2397 187.832 24.731V24.2164C187.832 23.4327 187.526 22.7778 186.902 22.228C186.278 21.6783 185.548 21.4093 184.712 21.4093C183.452 21.4093 182.451 21.9357 181.721 23L179.731 21.7602C180.826 20.1813 182.451 19.3976 184.594 19.3976ZM181.674 28.076C181.674 28.6608 181.921 29.152 182.427 29.538C182.922 29.9239 183.511 30.1228 184.182 30.1228C185.136 30.1228 185.983 29.7719 186.725 29.0701C187.467 28.3684 187.844 27.5497 187.844 26.6023C187.137 26.0526 186.16 25.7719 184.9 25.7719C183.982 25.7719 183.216 25.9941 182.604 26.4269C181.98 26.883 181.674 27.4327 181.674 28.076Z" fill="white"/>
<path d="M202.292 19.7836L194.756 37H192.424L195.227 30.9766L190.258 19.7836H192.719L196.298 28.3684H196.345L199.831 19.7836H202.292Z" fill="white"/>
<path d="M160.459 23.2456C160.459 22.5134 160.393 21.8128 160.27 21.1392H150.794V24.9988L156.251 25C156.03 26.2842 155.318 27.3789 154.226 28.1087V30.6128H157.475C159.372 28.869 160.459 26.2912 160.459 23.2456Z" fill="#4285F4"/>
<path d="M154.227 28.1088C153.323 28.7146 152.158 29.069 150.796 29.069C148.164 29.069 145.932 27.3076 145.132 24.9333H141.781V27.5158C143.441 30.7883 146.854 33.0339 150.796 33.0339C153.521 33.0339 155.81 32.1439 157.476 30.6117L154.227 28.1088Z" fill="#34A853"/>
<path d="M144.817 23.0175C144.817 22.3509 144.928 21.7064 145.132 21.1006V18.5181H141.781C141.094 19.8713 140.708 21.3988 140.708 23.0175C140.708 24.6362 141.096 26.1637 141.781 27.5169L145.132 24.9345C144.928 24.3286 144.817 23.6842 144.817 23.0175Z" fill="#FABB05"/>
<path d="M150.796 16.9649C152.283 16.9649 153.615 17.4737 154.666 18.4678L157.545 15.6105C155.797 13.993 153.517 13 150.796 13C146.855 13 143.441 15.2456 141.781 18.5181L145.132 21.1006C145.932 18.7263 148.164 16.9649 150.796 16.9649Z" fill="#E94235"/>
</svg>
