<svg width="20" height="21" viewBox="0 0 20 21" fill="none" xmlns="http://www.w3.org/2000/svg">
<path d="M10.2326 8.67565V12.5406H15.7204C15.2096 14.9966 13.0715 16.4077 10.2326 16.4077C6.92589 16.3632 4.26915 13.7291 4.26915 10.495C4.26915 7.26091 6.92589 4.62677 10.2326 4.58227C11.6071 4.58066 12.9392 5.04712 14.0003 5.90156L16.9778 2.98971C13.5624 0.0532993 8.57435 -0.324382 4.73742 2.0629C0.900492 4.45017 -0.863214 9.02867 0.40936 13.2983C1.68193 17.568 5.68495 20.5027 10.2326 20.5C15.3482 20.5 20 16.8613 20 10.4944C19.9921 9.88143 19.9153 9.27112 19.771 8.67453L10.2326 8.67565Z" fill="currentColor"/>
</svg>
