<svg width="14" height="18" viewBox="0 0 14 18" fill="none" xmlns="http://www.w3.org/2000/svg">
<path d="M2.71429 8.11111H1.85714C1.38376 8.11111 1 8.50908 1 9V16.1111C1 16.602 1.38376 17 1.85714 17H12.1429C12.6162 17 13 16.602 13 16.1111V9C13 8.50908 12.6162 8.11111 12.1429 8.11111H11.2857H2.71429Z" fill="#EAEAEA"/>
<path d="M12.1429 8.11111H1.85714M12.1429 8.11111C12.6162 8.11111 13 8.50908 13 9V16.1111C13 16.602 12.6162 17 12.1429 17H1.85714C1.38376 17 1 16.602 1 16.1111V9C1 8.50908 1.38376 8.11111 1.85714 8.11111M12.1429 8.11111H11.2857M1.85714 8.11111H2.71429M11.2857 8.11111V5.44444C11.2857 2.98985 9.36693 1 7 1C4.63307 1 2.71429 2.98985 2.71429 5.44444V8.11111M11.2857 8.11111H2.71429" stroke="#EAEAEA" stroke-width="2" stroke-linecap="round" stroke-linejoin="round"/>
</svg>
