<svg width="34" height="34" viewBox="0 0 34 34" fill="none" xmlns="http://www.w3.org/2000/svg">
<path fill-rule="evenodd" clip-rule="evenodd" d="M27.0891 1.28264C26.6986 0.892115 26.0654 0.892115 25.6749 1.28264L21.9534 5.00419C21.9428 5.01392 21.9323 5.0239 21.9221 5.03412L1.28215 25.6741C1.09461 25.8616 0.989258 26.116 0.989258 26.3812V32.0103C0.989258 32.5626 1.43697 33.0103 1.98926 33.0103H7.61834C7.88355 33.0103 8.13791 32.9049 8.32544 32.7174L28.9339 12.1089C28.9446 12.0991 28.9551 12.089 28.9655 12.0787L32.7182 8.32593C32.9058 8.1384 33.0111 7.88404 33.0111 7.61883C33.0111 7.35361 32.9058 7.09926 32.7182 6.91172L27.0891 1.28264ZM22.6286 7.15602L26.8435 11.3709L7.20412 31.0103H2.98926V26.7954L22.6286 7.15602ZM28.259 9.95676L30.5969 7.61883L26.382 3.40396L24.0441 5.74189L28.259 9.95676Z" fill="#F8F8F8"/>
</svg>
