<svg width="18" height="18" viewBox="0 0 18 18" fill="none" xmlns="http://www.w3.org/2000/svg">
<path d="M9.94618 14.7083L12.2588 12.3957C12.5678 12.0867 13.0539 12.0437 13.4123 12.2937L16.6141 14.5268C17.0745 14.8479 17.1328 15.5071 16.7359 15.904L16.3875 16.2523C15.7471 16.8928 14.8281 17.1702 13.9659 16.8927C12.1039 16.2933 8.71614 14.9016 5.90727 12.0927C3.0984 9.28386 1.70669 5.89613 1.10731 4.0341C0.829775 3.17192 1.1072 2.25292 1.74767 1.61245L2.09598 1.26414C2.49289 0.867228 3.1521 0.925518 3.47321 1.38593L5.7063 4.58774C5.95628 4.94615 5.9133 5.43221 5.60431 5.7412L3.29169 8.05382" stroke="#EAEAEA" stroke-width="2" stroke-linecap="round"/>
</svg>
