<svg width="12" height="13" viewBox="0 0 12 13" fill="none" xmlns="http://www.w3.org/2000/svg">
<path fill-rule="evenodd" clip-rule="evenodd" d="M12 6.06149C12 2.71382 9.3137 0 6 0C2.68629 0 0 2.71382 0 6.06149C0 9.40915 2.68629 12.123 6 12.123C9.3137 12.123 12 9.40915 12 6.06149ZM8.23463 3.30107C7.61266 2.21275 6.23514 1.83987 5.15786 2.46821C4.38559 2.91865 3.97725 3.76136 4.03707 4.60338H5.042C4.97833 4.11149 5.20611 3.6066 5.65786 3.34311C6.25685 2.99373 7.02278 3.20106 7.3686 3.80619C7.71443 4.41132 7.5092 5.1851 6.91021 5.53447L6.75428 5.63269C6.04595 6.11341 5.61181 6.90108 5.57181 7.75499L5.5718 7.81115H6.57125V7.77888L6.58541 7.62939C6.65563 7.13424 6.95358 6.67571 7.41021 6.40937L7.54116 6.32694C8.51653 5.66559 8.83068 4.34405 8.23463 3.30107ZM5.57152 8.8214H6.57125V9.7978H5.57125L5.57152 8.8214Z" fill="#908C81"/>
</svg>
