<svg width="29" height="21" viewBox="0 0 29 21" fill="none" xmlns="http://www.w3.org/2000/svg">
<path d="M25.319 17.2621L28 17.2617V11.8806L23.5 6.87061H19V17.2617M25.319 17.2621C25.0543 16.5052 24.3399 15.9629 23.5 15.9629M25.319 17.2621C25.3899 17.4652 25.4286 17.6836 25.4286 17.9112M23.5 15.9629C22.6601 15.9629 21.9457 16.5052 21.681 17.2621M23.5 15.9629C24.5651 15.9629 25.4286 16.8352 25.4286 17.9112M23.5 15.9629C22.4349 15.9629 21.5714 16.8352 21.5714 17.9112M21.681 17.2621L19 17.2617M21.681 17.2621C21.61 17.4652 21.5714 17.6836 21.5714 17.9112M19 17.2617V1.67505H1M19 17.2617L9.89039 17.2621M9.89039 17.2621C9.62575 16.5052 8.91128 15.9629 8.07143 15.9629M9.89039 17.2621C9.96138 17.4652 10 17.6836 10 17.9112M8.07143 15.9629C7.23158 15.9629 6.51711 16.5052 6.25246 17.2621M8.07143 15.9629C9.13655 15.9629 10 16.8352 10 17.9112M8.07143 15.9629C7.00631 15.9629 6.14286 16.8352 6.14286 17.9112M6.25246 17.2621L4.85714 17.2617M6.25246 17.2621C6.18148 17.4652 6.14286 17.6836 6.14286 17.9112M25.4286 17.9112C25.4286 18.9872 24.5651 19.8595 23.5 19.8595C22.4349 19.8595 21.5714 18.9872 21.5714 17.9112M10 17.9112C10 18.9872 9.13655 19.8595 8.07143 19.8595C7.00631 19.8595 6.14286 18.9872 6.14286 17.9112M5.5 9.4684H3.57143M5.5 13.3651H4.85714M5.5 5.57172H2.28571" stroke="#FB6C6C" stroke-width="2" stroke-linecap="round" stroke-linejoin="round"/>
</svg>
