<svg width="80" height="80" viewBox="0 0 80 80" fill="none" xmlns="http://www.w3.org/2000/svg">
<rect width="80" height="80" rx="8" fill="#19A896"/>
<path d="M20 45C20 47.6264 20.5173 50.2272 21.5224 52.6537C22.5275 55.0802 24.0007 57.285 25.8579 59.1421C27.715 60.9993 29.9198 62.4725 32.3463 63.4776C34.7728 64.4827 37.3736 65 40 65C42.6264 65 45.2272 64.4827 47.6537 63.4776C50.0802 62.4725 52.285 60.9993 54.1421 59.1421C55.9993 57.285 57.4725 55.0802 58.4776 52.6537C59.4827 50.2272 60 47.6264 60 45H40L20 45Z" fill="#F8F8F8"/>
<circle cx="20" cy="25" r="10" fill="#F8F8F8"/>
<circle cx="60" cy="25" r="10" fill="#F8F8F8"/>
</svg>
