<svg width="24" height="21" viewBox="0 0 24 21" fill="none" xmlns="http://www.w3.org/2000/svg">
<path d="M21.173 3.65358C22.2015 3.02278 22.971 2.02951 23.338 0.859238C22.3715 1.44754 21.3141 1.86195 20.2115 2.08456C18.6828 0.425524 16.2607 0.0217906 14.2986 1.09895C12.3365 2.17612 11.3202 4.4675 11.8176 6.69275C7.85881 6.48885 4.17053 4.57041 1.67052 1.41481C0.365817 3.72352 1.03255 6.67484 3.19419 8.15936C2.41252 8.13358 1.64818 7.91646 0.964911 7.52611C0.964911 7.54729 0.964911 7.56848 0.964911 7.58967C0.965363 9.99458 2.6175 12.0661 4.91519 12.5427C4.19015 12.7451 3.42963 12.7749 2.69165 12.6298C3.33783 14.6865 5.18545 16.0954 7.29133 16.1375C5.54718 17.5419 3.39322 18.3035 1.17602 18.2997C0.783024 18.3003 0.390336 18.2771 0 18.2303C2.25152 19.7146 4.87202 20.5024 7.54833 20.4997C11.2717 20.5259 14.85 19.02 17.4828 16.3188C20.1156 13.6175 21.5832 9.94643 21.5573 6.12658C21.5573 5.90765 21.5523 5.68989 21.5424 5.47331C22.5067 4.75837 23.3389 3.87269 24 2.85789C23.1017 3.2664 22.1487 3.53461 21.173 3.65358Z" fill="#19A896"/>
</svg>
